<svg width="650" height="356" viewBox="0 0 650 356" fill="none" xmlns="http://www.w3.org/2000/svg">
<path d="M398.008 355.603V0.396667H494.597C580.423 0.396667 650 69.9733 650 155.8V200.202C650 286.028 580.423 355.605 494.597 355.605L398.008 355.603Z" fill="white"/>
<path d="M0 355.603C0 265.69 72.89 192.8 162.803 192.8C252.717 192.8 325.607 265.69 325.607 355.603H0Z" fill="white"/>
<path d="M162.803 192.8C215.934 192.8 259.005 149.729 259.005 96.5983C259.005 43.4676 215.934 0.396667 162.803 0.396667C109.673 0.396667 66.6017 43.4676 66.6017 96.5983C66.6017 149.729 109.673 192.8 162.803 192.8Z" fill="white"/>
</svg>
