<svg width="668" height="372" viewBox="0 0 668 372" fill="none" xmlns="http://www.w3.org/2000/svg">
<path d="M171.803 200.8C81.89 200.8 9 273.69 9 363.603H334.607C334.607 273.69 261.717 200.8 171.803 200.8ZM171.803 200.8C224.934 200.8 268.005 157.729 268.005 104.598C268.005 51.4676 224.934 8.39667 171.803 8.39667C118.673 8.39667 75.6017 51.4676 75.6017 104.598C75.6017 157.729 118.673 200.8 171.803 200.8ZM407.008 363.603V8.39667H503.597C589.423 8.39667 659 77.9733 659 163.8V208.202C659 294.028 589.423 363.605 503.597 363.605L407.008 363.603Z" stroke="white" stroke-width="16.6667" stroke-linecap="round" stroke-linejoin="round"/>
</svg>
